<svg xmlns="http://www.w3.org/2000/svg" xmlns:xlink="http://www.w3.org/1999/xlink" width="160" height="160" viewBox="0 0 160 160">
    <defs>
        <path id="prefix__a" d="M120 60c0 22-11.838 41.233-29.496 51.676C81.568 116.966 71.138 120 60 120c-8.297 0-16.202-1.685-23.388-4.731-2.461-1.041-4.839-2.244-7.117-3.593C11.838 101.233 0 81.999 0 60 0 26.863 26.863 0 60 0s60 26.863 60 60z"/>
        <path id="prefix__c" d="M15.792 12.317c-1.129 1.106-2.136 1.174-3.902 1.878-.729.29-1.645.571-2.568.81-.478.125.253.895-.202.994-.151 1.112-.48.565-.94 1.54-.426.902-.481 1.354-.166 1.358.878-.015 1.404.085 1.578.298.262.32.972 5.689.724 7.686-.165 1.332-.564 4.651-1.196 9.959 5.113.699 8.148.913 9.102.644.955-.27 2.555-1.197 4.8-2.782.528-8.636.685-13.58.47-14.834-.321-1.88-.465-5.48-1.224-6.29-.506-.54-1.42-.81-2.744-.81-.136.952-.47 1.427-1.003 1.427-.8 0-1.857-1.115-2.73-1.878z"/>
        <path id="prefix__d" d="M8.002.054C7.226.7 2.631 1.669 1.43 3.025.63 3.93.445 5.632.88 8.133l1.654 2.356c.282-.533.468-.724.56-.572.138.228-.56 2.49-.56 3.312 0 .822.625 3.906.313 4.626-.313.72-1.19 2.654-1.19 4.4v3.056c.517.055 1.097-.049 1.738-.311.962-.394 3.287-1.277 3.621-1.473.334-.196 2.631-1.113 2.911-1.113h4.087c.524-4.53.787-7.318.787-8.363V7.728 5.766h2.18c.338 0 .911-.047 1.72-.142l-1.72-1.278c-.073-1.504-.423-2.33-1.05-2.48-.628-.15-1.894-.614-3.798-1.392-.068 1.02-.426 1.53-1.073 1.53-.972 0-2.393-1.78-3.057-1.95z"/>
        <path id="prefix__f" d="M8.445.144c-.34.284-1.68.77-3.768.681C3.286.765 2.003.54.83.144L.42 2.47c1.169.501 1.822 1.135 1.96 1.9.724.288 1.192.736 1.403 1.345-.058 1.313-.086 2.52-.086 3.62 0 1.652-.161 2.788-.161 3.874 0 1.085-.248 3.542-.56 4.262-.313.72-.878 3.129-.878 4.874 0 .727-.349 3.111-.122 3.613.318.702.999.048 1.56-.182.962-.393 3.588-1.963 3.922-2.159.334-.196 3.227-.369 3.507-.369h4.086c.128-5.026.192-8.062.192-9.107 0-1.568.191-4.62 0-5.56-.128-.626-.128-1.331 0-2.116.476-.5 1.062-.75 1.757-.75 1.043 0 .173-3.396-.769-3.62-.627-.15-1.846-.66-3.657-1.53-.067 1.02-.425 1.53-1.073 1.53-.971 0-2.392-1.78-3.056-1.951z"/>
    </defs>
    <g fill="none" fill-rule="evenodd">
        <g transform="translate(20 31)">
            <mask id="prefix__b" fill="#fff">
                <use xlink:href="#prefix__a"/>
            </mask>
            <use fill="#FDF5F5" xlink:href="#prefix__a"/>
            <g mask="url(#prefix__b)">
                <g>
                    <path fill="#F8D790" d="M2.769 27.979L5.15 27.947 5.15 30.947 2.769 30.979z" transform="translate(16 78) rotate(14 3.96 29.463)"/>
                    <path fill="#CAC9CD" d="M6.501 1c1.473.453 2.465.68 2.978.68.514 0 1.976-.282 4.389-.844-.499 2.802-.88 4.56-1.145 5.275-.397 1.072-1.366 3.288-2.586 7.056-1.22 3.768-1.012 3.524-1.712 5.434-.598 2.266-1.546 5.995-2.845 11.187L2.583 28.8c.537-7.19.9-11.226 1.09-12.11.285-1.326.938-6.893 1.236-8.158.299-1.264.82-2.227.82-3.422 0-1.195-.023-1.858.215-2.672.159-.542.345-1.022.557-1.439z" transform="translate(16 78)"/>
                    <path fill="#606267" d="M2.226 29.772l3.313.418c-.195.176-.211.39-.05.645.24.38 1.883 2.25 1.77 2.462l-.267.503-5.274-1.149.508-2.88z" transform="translate(16 78)"/>
                </g>
            </g>
            <g mask="url(#prefix__b)">
                <g>
                    <path fill="#F8D790" d="M1.464 0.358L3.846 0.326 3.846 3.326 1.464 3.358z" transform="translate(26 106)"/>
                    <path fill="#606267" d="M1.042 2.776l3.34-.048c-.169.202-.156.417.039.646.292.344 2.178 1.966 2.096 2.192l-.195.535L.94 5.698l.102-2.922z" transform="translate(26 106)"/>
                </g>
            </g>
            <path fill="#D0242A" d="M17.333 83.353c.57 0 1.236.095 1.602.48.244.256.391.593.442 1.01 2.458.12 3.785.204 3.98.253.293.074.435.114.58.235.146.121.412.5.412.811v.058c.005.423.043 2.668.114 6.734.044.98.044 1.57 0 1.769-.067.298-.261.695-.66.804-.399.11-12.781.093-13.13-.075-.348-.167-.637-.468-.766-.729-.13-.26-.28-8.71-.163-8.912.116-.202.334-.75.643-.75s3.888.036 4.59.036c.21-1.074.52-1.26.875-1.52s.912-.204 1.481-.204zm-.203.48c-.327 0-.638.054-.825.106-.187.05-.348.152-.547.332-.199.18-.277.482-.24.806.36 0 3.3 0 3.429-.02-.023-.092-.13-.498-.253-.672-.123-.175-.325-.255-.51-.352-.185-.096-.727-.2-1.054-.2z"/>
            <path fill="#F8D790" d="M36.147 63c.262-.58 1.415-.985 2.094-.072 1.02-2.308 1.845-5.418 1.964-5.555.15-.173.221-.4.214-.681-.25-1.266-.352-1.948-.308-2.045.066-.145.147-.178.326-.08.12.067.22.21.305.43.031.415.063.65.094.706.031.057.103.08.214.07l.84-1.441c.126-.25.242-.37.35-.36.16.016.563.084.705.392.095.206.111.46.048.761-.472 1.068-.819 1.694-1.04 1.878-.223.184-.32.48-.292.886-.294 1.833-.647 3.513-1.056 5.039-.615 2.289-1.002 3.168-1.225 3.57-.148.268-.644.336-1.487.205l-2.157-2.325c-.087-.12.05-.579.41-1.378zM52.514 62.875c-.19-.42-.86-.978-1.467-.78-.23.076-.44.457-.628.708-1.019-2.307-1.845-5.418-1.963-5.555-.15-.172-.222-.4-.215-.68.25-1.267.353-1.948.309-2.045-.066-.145-.148-.179-.326-.08-.12.066-.221.21-.305.43-.032.414-.063.65-.094.706-.032.056-.103.08-.214.069l-.841-1.44c-.125-.25-.24-.37-.348-.36-.162.016-.565.083-.707.392-.094.206-.11.46-.047.76.471 1.069.818 1.695 1.04 1.879.223.184.32.479.292.885.294 1.833.646 3.513 1.056 5.039.615 2.289 1.002 3.169 1.225 3.57.148.268.644.337 1.487.205l2.277-3.091c.007.391-.17.188-.531-.612z"/>
            <g transform="matrix(-1 0 0 1 76 45)">
                <path fill="#F8D790" d="M9.385 22.335c-.05.101-.781 1.503-1.407 3.153-.82 2.812-1.891 5.852-2.02 6.018-.141.18-.2.41-.179.692.214 1.284.3 1.975.262 2.074-.058.148-.138.186-.321.097-.123-.06-.232-.198-.327-.413-.053-.413-.097-.646-.131-.7-.034-.055-.107-.074-.217-.058L4.28 34.68c-.111.256-.22.382-.329.377-.162-.007-.568-.053-.726-.354-.105-.2-.134-.453-.087-.757.415-1.092.729-1.735.941-1.93.212-.196.294-.495.245-.9.486-3.204.75-4.9.79-5.087.063-.28.853-3.623 1.055-4.036.134-.275.636-1.489 1.505-3.64l2.552 1.63c-.475 1.393-.756 2.177-.84 2.352z"/>
                <path fill="#CAC9CD" d="M21.865 13.188c1.052.598 2.031 1.542 2.936 2.832l.81 1.08-3.094 1.86-2.028-4.417c-.603-1.24-.144-1.692 1.376-1.355z"/>
                <path fill="#EDCC86" d="M15.953 11.181c-.122.618-.174 1.072-.156 1.36.018.289-.102 1.238-.358 2.846l5.03-.454c-.693-1.594-1.054-2.47-1.083-2.628-.03-.158-.096-.695-.2-1.611l-3.233.487z"/>
                <path fill="#F8D790" d="M9.967 63.318L12.348 63.287 12.348 66.287 9.967 66.318z" transform="rotate(5 11.158 64.802)"/>
                <path fill="#F8D790" d="M17.062 63.112L19.444 63.08 19.444 66.08 17.062 66.112z"/>
                <path fill="#C1C0C4" d="M22.169 34.83c.183-.168.196 1.187.04 4.064-.236 4.316-.13 2.161-.454 6.376-.215 2.81-.527 5.744-.933 8.802l-.923 9.854-3.185.394c-.429-6.95-.643-11.135-.643-12.559 0-1.423.314-3.887.943-7.391l-.422-5.005 3.015-4.475 1.215-.81h1.622l-.275.75z"/>
                <path fill="#CAC9CD" d="M10.661 36.165c1.512.296 2.523.417 3.033.364.51-.054 1.936-.487 4.276-1.298-.203 2.839-.398 4.628-.587 5.366-.283 1.108-1.015 3.413-1.834 7.288-.819 3.875-.639 3.61-1.135 5.583-.357 2.316-.91 6.124-1.66 11.423l-3.084-.668c-.217-7.206-.278-11.259-.181-12.158.145-1.349.212-6.954.376-8.242.165-1.289.583-2.301.458-3.49-.125-1.187-.217-1.845-.065-2.679.1-.556.235-1.052.403-1.49z"/>
                <path fill="#606267" d="M9.459 65.259l3.34.01c-.172.2-.163.415.028.647.286.349 2.144 2.004 2.057 2.229l-.204.53-5.374-.497.153-2.92zM16.665 65.39l3.333-.222c-.158.21-.133.424.073.643.31.327 2.278 1.849 2.208 2.08l-.167.543-5.396-.12-.05-2.924z"/>
                <path fill="#F8D790" d="M19.138 4.582c.535 1.006 1.103 2.07 1.282 2.671.18.6.416 1.736.41 2.153-.005.416.043.792-.367 1.183-.41.392-.612.695-1.351.872-.74.176-1.563.23-2.146.119-.388-.074-1.023-.21-1.905-.406l-1.402-4.2c3.296-2.265 5.122-3.063 5.479-2.392z"/>
                <path fill="#606267" d="M15.485 6.81c.283.533.766.724.468.882-.297.158-.411-.187-.538-.12-.126.068-.488.107-.513.273-.024.167-.124.609-.024.795.099.187.646.939.755 1.42.073.322.048.698-.075 1.129-.11.098-.24.11-.394.033-.23-.114-.875-.4-1.36-.773-.324-.248-.657-.875-1-1.88 1.599-1.527 2.492-2.113 2.681-1.758z"/>
                <path fill="#D8D8D8" d="M12.801 8.747l5.91-3.688s3.03-1.623 3.141-1.882c.075-.173.027-.37-.143-.595-.198-.133-.38-.156-.546-.068L18.672 3.84c-1.001-.604-1.658-.897-1.97-.88-.467.028-1.229.008-2.065.452-.835.445-2.022 1.221-2.147 1.789-.126.567-.362 1.44-.139 2.175.149.49.3.948.45 1.372z"/>
                <use fill="#D8D8D8" xlink:href="#prefix__c"/>
                <path fill="#E37B7E" fill-rule="nonzero" d="M9.57 19.156l.799-.05c.053.85.3 2.264.362 2.954.162 1.793.369 3.704.375 3.79.042.547.009 1.084-.125 1.999-.273 1.859-.678 4.871-1.214 9.035l-.794-.103c.537-4.168.943-7.183 1.216-9.048.126-.861.156-1.343.12-1.823-.004-.047-.397-2.602-.563-4.43-.063-.697-.121-1.467-.176-2.324zM15.649 13.49c.11.293.259.541.337.725-1.218.567-1.955.72-4.297 1.707-.167-.344-.215-.503-.31-.738 2.333-.982 3.062-1.132 4.27-1.694zM21.933 13.617c-.098.297-.14.583-.194.776-.664-.14-1.652-.447-1.974-.519.086-.372.149-.526.223-.768.41.094 1.318.403 1.945.51z"/>
                <path fill="#CAC9CD" d="M9.232 15.034c-.256.401-.333.668-1.094 1.803-.507.756-.909 1.578-1.205 2.464l3.022 2.546c1.044-1.969 1.672-2.986 1.885-3.05 0-.247-.169-1.422-.847-2.426-.667-.988-1.532-1.425-1.76-1.337z"/>
            </g>
            <path fill="#C1C0C4" d="M32.585 78.571c.183-.167.196 1.187.04 4.065-.236 4.316-.13 2.16-.454 6.376-.215 2.81-.526 5.744-.933 8.801l-.923 9.854-3.185.395c-.429-6.95-.643-11.136-.643-12.56 0-1.423.315-3.887.943-7.39l-.422-5.005 3.015-4.476 1.215-.81h1.622l-.275.75z"/>
            <path fill="#F8D790" d="M18.034 82.525c0-1.998.117-3.761.454-5.205.225-.963.489-2.156.792-3.58l1.734-6.468-2.459-1.122c-.31 1.148-.536 2.051-.677 2.71-.21.986-.571 2.202-.764 4-.192 1.796-.488 2.692-.488 4 0 .551-.101.927-.128 1.983-.036 1.443 0 3.56 0 3.678v.651c0 .293-.134.58-.067.796.067.217.048.348.195.348.148 0 .416-.126.485-.082.068.045.206.342.303.342s.492-.17.492-.256.052-.253-.026-.278c-.077-.024-.195.016-.195-.07 0-.086-.05-.39 0-.426.05-.036.24-.12.35-.12.108 0 .465.323.52.323.055 0 .478.087.548-.03.07-.117-.026-.343-.138-.421-.113-.078-.589-.297-.645-.366-.057-.068-.286-.034-.286-.407z"/>
            <path fill="#EDCC86" d="M27.306 55.339c-.108.642-.2 1.089-.277 1.34-.076.25-.217 1.196-.423 2.838l5.216-.426c-.692-1.595-1.053-2.47-1.082-2.629-.03-.158-.096-.695-.2-1.61l-3.234.487z"/>
            <g>
                <path fill="#F8D790" d="M7.951 3.178c0 1.14.001 2.347-.122 2.96-.123.615-.448 1.729-.648 2.094-.2.366-.334.72-.88.873-.546.153-.867.326-1.602.135-.736-.192-1.489-.53-1.95-.902-.309-.248-.83-.679-1.564-1.292l.806-4.327c3.973-.453 5.96-.3 5.96.46z" transform="rotate(-28 112.035 -20.307)"/>
                <path fill="#606267" d="M3.68 3.432c0 .602.336.997 0 .997-.337 0-.277-.357-.42-.357-.144 0-.481-.136-.581 0-.1.135-.395.479-.395.69 0 .21.13 1.131 0 1.609-.086.318-.285.638-.596.96-.143.036-.264-.016-.363-.155-.15-.209-.585-.764-.838-1.321-.17-.372-.17-1.081 0-2.13 2.128-.597 3.192-.695 3.192-.293z" transform="rotate(-28 112.035 -20.307)"/>
                <path fill="#D8D8D8" d="M.4 3.882l6.95-.483s3.437-.01 3.657-.187c.147-.117.198-.315.153-.592-.112-.21-.262-.316-.45-.316H7.888C7.288 1.3 6.846.734 6.562.603 6.137.408 5.473.033 4.527.033c-.947 0-2.36.128-2.736.57-.377.442-.996 1.1-1.144 1.855-.098.503-.18.977-.247 1.424z" transform="rotate(-28 112.035 -20.307)"/>
            </g>
            <g transform="translate(19 57)">
                <mask id="prefix__e" fill="#fff">
                    <use xlink:href="#prefix__d"/>
                </mask>
                <use fill="#D8D8D8" xlink:href="#prefix__d"/>
                <path fill="#E37B7E" fill-rule="nonzero" d="M2.722 9.866l.758.175c-.25 1.325-.225 2.55 0 4.58.25 2.268.436 2.79.135 3.458-.117.257-.234.477-.37.701-.064.103-.265.416-.302.477-.296.487-.4.931-.4 2.053v4.007h-.8V21.31c0-1.259.137-1.846.517-2.47.044-.07.245-.384.3-.476.121-.198.224-.389.325-.614.212-.469.026-.991-.2-3.04-.233-2.106-.231-3.42.037-4.844z" mask="url(#prefix__e)"/>
            </g>
            <path fill="#CAC9CD" d="M33.35 61.791c.245.936.656 1.649 1.027 1.994.246.23.696.611 1.35 1.143l2.497-2.68c-1.301-1.449-2.13-2.443-2.488-2.98-.287-.433-1.005-.63-2.118.308-1.112.938-.41 1.68-.269 2.215zM20.43 60.025c-.801.904-1.616 3.117-2.445 6.638l3.5 1.185c.201-.197.404-.507.608-.931.124-.256 1.194-3.238.812-4.625-.381-1.387-1.759-3.076-2.476-2.267z"/>
            <path fill="#E37B7E" fill-rule="nonzero" d="M27.114 58.087c.11.293.259.542.338.726-1.22.567-1.956.72-4.298 1.706-.167-.343-.215-.502-.31-.737 2.333-.983 3.062-1.132 4.27-1.695zM33.371 58.536c-.134.283-.21.562-.287.747-.642-.22-1.586-.645-1.896-.755.13-.36.211-.504.314-.736.396.144 1.26.562 1.87.744z"/>
            <path fill="#D8D8D8" d="M18.95 90.771c-.119 0-.208.03-.298.03l-.866-.866.717-.717.926-.329.687-1.105c.03-.06.03-.15 0-.18l-.359-.358c-.06-.06-.149-.06-.209-.03l-1.135.657-.359.956-.717.717-.806-.866c0-.09.03-.18.03-.299 0-.777-.747-1.344-1.494-1.165l.448.448c.24.24.24.598 0 .837-.239.239-.597.239-.836 0l-.478-.419c-.24.867.567 1.703 1.463 1.434l.867.867-.359.358c-.209-.06-.418 0-.567.15l-1.225 1.225c-.24.239-.27.597-.06.836.24.269.627.269.866.03l1.255-1.255c.15-.15.21-.388.15-.567l.358-.359.866.866c-.03.09-.03.21-.03.3 0 .776.748 1.344 1.494 1.164l-.448-.448c-.239-.239-.239-.597 0-.836.24-.24.598-.24.837 0l.448.448c.209-.777-.388-1.524-1.165-1.524z"/>
        </g>
        <g fill-rule="nonzero">
            <path fill="#33985B" d="M25.791 1.313c2.025-.11 4.093.008 6.176.376 14.686 2.589 24.49 16.592 21.901 31.278-2.59 14.686-16.592 24.49-31.278 21.901C7.904 52.278-1.901 38.276.689 23.59c.615-3.49 1.875-6.705 3.636-9.543.27-.513.694-1.134 1.267-1.863 1.602-2.155 3.509-4.047 5.646-5.625 1.146-.855 2.196-1.497 3.173-2.018.8-.436 1.625-.83 2.47-1.184l.384-.17c2.727-1.201 5.598-1.827 8.614-1.875zm13.533 17.21c-.713-.6-1.778-.506-2.377.207L23.073 35.265l-4.979-6.533c-.508-.78-1.554-.999-2.334-.49-.781.51-1.001 1.556-.491 2.336l6.362 8.348c.509.78 1.554 1 2.335.49.236-.153 15.568-18.514 15.568-18.514.598-.714.505-1.779-.21-2.38zM25.88 1.311l-.088.001c-3.112.169-6.12.876-8.91 2.044-.773.342-1.592.714-2.47 1.184-1.104.599-2.164 1.273-3.173 2.018-.785.585-1.616 1.272-2.498 2.09-1.324 1.374-2.373 2.552-3.148 3.535-.446.6-.87 1.222-1.267 1.863l-.044.085 4.423 1.011c-.508-2.301.945-4.579 3.246-5.087 2.3-.508 4.578.945 5.087 3.245.258 1.172.013 2.398-.679 3.38l6.205 1.246 1.432-7.054c.48.339 1.024.573 1.6.69 2.318.442 4.556-1.08 4.998-3.399.434-2.278-1.03-4.488-3.298-4.977-.576-.115-1.17-.11-1.744.018l.328-1.893z" transform="translate(91 20)"/>
            <path fill="#FFF" d="M13.029 4.748c.25-.115.548-.005.662.247.115.25.005.547-.246.662-3.129 1.43-5.979 4.176-8.545 8.25-.147.233-.456.303-.69.156-.233-.147-.303-.456-.156-.69 2.663-4.226 5.652-7.106 8.975-8.625z" transform="translate(91 20)"/>
            <path fill="#FDF5F5" d="M4.9 13.907c-.14.246-.456.303-.69.156-.233-.147-.307-.477-.156-.69.027-.038.114-.168.26-.39l1.004.293c-.252.374-.391.584-.418.63z" transform="translate(91 20)"/>
            <path fill="#FFF" d="M25.697.839l.03 1c-4.008.123-7.777 1.219-11.313 3.29l-.505-.863C17.588 2.111 21.519.968 25.697.84z" transform="translate(91 20)"/>
        </g>
        <g>
            <path fill="#F8D790" d="M11.383 19.274L5.426 15.2s-.524-.911-.611-1.972c.588-2.97 2.023-6.562 4.306-10.773-.715-.371-1.04-.693-.972-.966.1-.41.284-.353.58-.703.295-.349 1.326 1.01 1.787 1.258.345.185-1.926 5.997-2.367 7.136-.442 1.138-.857 3.543-.656 3.817.532.723 2.51 2.023 5.933 3.9l-2.043 2.377zM25.868 20.988l6.888-2.154s1.817-.809 1.46-2.966c-.96-3.097-1.73-5.514-2.308-7.25-.339-1.088-.5-1.772-.485-2.052.122-.044.502-.08.567-.208.055-.11 0-.287-.082-.48-.181-.42-1.468.253-1.981.355-.384.076.86 4.726 1.068 6.356.208 1.63.7 3.331.428 3.534-.72.536-2.991 1.201-6.813 1.995l1.258 2.87z" transform="translate(46 17)"/>
            <path fill="#EDCC86" d="M18.207 13.864c-.109.642-.201 1.089-.277 1.339-.077.25-.218 1.197-.423 2.839l4.96-.407c-.522-1.607-.797-2.49-.827-2.648-.03-.158-.096-.695-.2-1.61l-3.233.487z" transform="translate(46 17)"/>
            <path fill="#F8D790" d="M14.068 65.098L16.45 65.066 16.45 68.066 14.068 68.098zM18.333 64.318L20.714 64.287 20.714 67.287 18.333 67.318z" transform="translate(46 17)"/>
            <path fill="#C1C0C4" d="M23.43 36.036c.184-.167.197 1.187.04 4.065-.236 4.316-.13 2.16-.453 6.376-.216 2.81-.527 5.744-.933 8.801l-.924 9.854-3.185.395c-.428-6.95-.642-11.136-.642-12.56 0-1.423.314-3.887.943-7.39l-.423-5.005 3.016-4.476 1.215-.81h1.622l-.275.75z" transform="translate(46 17)"/>
            <path fill="#CAC9CD" d="M12.21 37.854c1.533.163 2.55.196 3.054.098s1.886-.653 4.147-1.665c.045 2.845.006 4.644-.117 5.396-.186 1.129-.714 3.489-1.192 7.42-.478 3.932-.322 3.653-.644 5.66-.155 2.34-.375 6.1-.662 11.285l-3.127-.156c-.845-7.16-1.258-11.192-1.24-12.096.027-1.356-.395-6.946-.343-8.244.052-1.298.38-2.343.151-3.516-.228-1.172-.377-1.82-.298-2.663.052-.563.143-1.07.272-1.52z" transform="translate(46 17)"/>
            <path fill="#606267" d="M13.697 66.667l3.338-.105c-.165.204-.148.42.05.645.299.338 2.213 1.927 2.135 2.155l-.186.538-5.388-.31.051-2.923z" transform="translate(46 17)"/>
            <path fill="#606267" d="M17.949 66.426l3.332-.222c-.157.21-.133.424.074.643.31.328 2.278 1.85 2.207 2.08l-.166.543L18 69.35l-.051-2.924z" transform="translate(46 17)"/>
            <g>
                <path fill="#F8D790" d="M7.724 4.066c0 1.139.002 2.346-.122 2.96-.123.615-.448 1.728-.648 2.094-.2.365-.334.72-.88.872-.546.153-.867.326-1.602.135-.736-.191-1.489-.53-1.95-.902-.309-.248-.83-.678-1.564-1.292l.806-4.327c3.973-.453 5.96-.3 5.96.46z" transform="translate(46 17) rotate(-9 44.839 -91.358)"/>
                <path fill="#606267" d="M3.452 4.319c0 .602.337.998 0 .998-.336 0-.276-.358-.42-.358-.142 0-.48-.136-.58 0-.1.135-.395.479-.395.69 0 .211.13 1.132 0 1.609-.086.318-.285.638-.596.96-.143.036-.264-.016-.363-.155C.948 7.855.513 7.3.26 6.742.09 6.37.09 5.66.26 4.612c2.128-.597 3.192-.695 3.192-.293z" transform="translate(46 17) rotate(-9 44.839 -91.358)"/>
                <path fill="#D8D8D8" d="M.174 4.769l6.949-.483s3.437-.01 3.657-.186c.147-.118.198-.315.153-.593-.112-.21-.262-.316-.45-.316H7.661c-.6-1.004-1.042-1.57-1.326-1.7C5.91 1.294 5.246.918 4.3.918c-.947 0-2.36.129-2.736.571C1.187 1.932.568 2.591.42 3.345c-.098.503-.18.978-.246 1.424z" transform="translate(46 17) rotate(-9 44.839 -91.358)"/>
            </g>
            <g transform="translate(46 17) translate(9 15)">
                <mask id="prefix__g" fill="#fff">
                    <use xlink:href="#prefix__f"/>
                </mask>
                <use fill="#D8D8D8" xlink:href="#prefix__f"/>
                <path fill="#E37B7E" fill-rule="nonzero" d="M3.445 4.672h1c0 .427.008.697.044 1.694.069 1.854.069 2.917-.046 4.266-.074.866-.097 1.407-.135 2.751-.038 1.34-.079 1.925-.215 2.6-.094.467-.133.612-.548 2.084l-.11.39c-.332 1.203-.491 1.963-.491 2.477 0 .861-.092 2.676-.276 5.458l-.998-.066c.182-2.759.274-4.56.274-5.392 0-.636.17-1.451.528-2.743l.11-.395c.404-1.432.445-1.581.53-2.01.122-.6.16-1.148.196-2.431.039-1.363.063-1.917.138-2.808.11-1.299.11-2.328.044-4.144-.037-1.012-.045-1.287-.045-1.73z" mask="url(#prefix__g)"/>
            </g>
            <path fill="#E37B7E" fill-rule="nonzero" d="M24.236 17.375c-.134.283-.21.563-.288.747-.641-.22-1.585-.645-1.896-.755.131-.359.212-.504.315-.736.395.144 1.26.562 1.869.744zM17.955 16.187c.031.311.11.59.139.788-.664.142-2.464.472-2.787.538-.072-.375-.078-.542-.109-.793.413-.08 2.141-.376 2.757-.533z" transform="translate(46 17)"/>
            <path fill="#CAC9CD" d="M24.754 21.944c1.173-.34 2.085-.635 2.734-.884l1.864-.715-1.151-3.402c-1.753.162-2.95.286-3.59.37-.417.057-.621 1.468-.49 2.25.086.521.297 1.315.633 2.38zM14.456 16.417c-1.376-.382-2.64-.939-3.793-1.67L8.44 17.655c.755.392 1.406.866 1.951 1.423.546.557 1.478 1.303 2.798 2.239.672-1.165 1.094-1.985 1.267-2.46.26-.714.957-2.175 0-2.44z" transform="translate(46 17)"/>
        </g>
        <path fill="#33985B" fill-rule="nonzero" d="M79.211 22.248l-2.61-3.711c-1.162 2.05-3.766 2.77-5.816 1.609-2.05-1.162-2.77-3.766-1.609-5.816.592-1.044 1.595-1.79 2.765-2.057l-3.776-5.078-5.785 4.283c-.13-.572-.377-1.11-.727-1.582-1.427-1.88-4.108-2.247-5.988-.82-1.847 1.404-2.239 4.025-.88 5.906.35.471.797.865 1.308 1.154l-1.51 1.188c2.334 1.863 4.886 3.32 7.656 4.37 1.917.726 5.194 1.649 9.995 1.692 3.108-.22 5.434-.6 6.977-1.138z"/>
        <path stroke="#FFF" stroke-opacity=".01" stroke-width=".1" d="M0.05 0.05H159.95000000000002V159.95000000000002H0.05z"/>
    </g>
</svg>
