<svg xmlns="http://www.w3.org/2000/svg" width="160" height="160" viewBox="0 0 160 160">
    <g fill="none" fill-rule="evenodd">
        <g>
            <path fill="#F5EAEA" d="M91.935 51.163V32.708l-6.743-2.248c-.474-1.378-1.053-2.765-1.732-4.136l3.19-6.377L73.602 6.898l-6.378 3.19c-1.372-.678-2.758-1.257-4.135-1.732L60.84 1.613H42.385l-2.248 6.743c-1.377.475-2.764 1.054-4.135 1.733l-6.378-3.19-13.048 13.048 3.19 6.377c-.679 1.373-1.258 2.758-1.732 4.136l-6.744 2.248v18.453l6.744 2.249c.47 1.367 1.043 2.74 1.713 4.101l-2.96 5.392h.955v3.226h17.742l1.589-1.589-1.018-.024c-7.166-4.947-11.861-13.214-11.861-22.58 0-15.144 12.275-27.42 27.419-27.42 15.143 0 27.42 12.276 27.42 27.42 0 9.812-5.156 18.42-12.904 23.266l-.942-.021c-.584.585-1.392.948-2.284.948h6.453c1.783 0 3.226 1.444 3.226 3.226s-1.443 3.226-3.226 3.226c1.783 0 3.226 1.443 3.226 3.225 0 .407-.084.79-.22 1.149l1.362-.013 12.923-13.024-3.187-6.371c.677-1.373 1.256-2.758 1.73-4.136l6.745-2.248z" transform="translate(30 29)"/>
            <g fill="#E5E5E5">
                <path fill-rule="nonzero" d="M95.161 91.935c-2.667 0-4.838 2.171-4.838 4.84 0 2.667 2.17 4.838 4.838 4.838S100 99.442 100 96.774c0-2.668-2.171-4.839-4.839-4.839zm0 6.452c-.888 0-1.613-.722-1.613-1.613 0-.89.725-1.613 1.613-1.613.889 0 1.613.723 1.613 1.613s-.724 1.613-1.613 1.613zM9.677 4.839C9.677 2.17 7.507 0 4.84 0S0 2.171 0 4.839c0 2.667 2.171 4.838 4.839 4.838 2.667 0 4.838-2.17 4.838-4.838zm-6.451 0c0-.889.724-1.613 1.613-1.613.888 0 1.613.724 1.613 1.613 0 .888-.725 1.613-1.613 1.613-.889 0-1.613-.725-1.613-1.613zM80.645 41.935c0-16.008-13.024-29.032-29.032-29.032-16.008 0-29.032 13.024-29.032 29.032 0 8.805 4.003 17.088 10.798 22.581H19.355V61.29H8.065v32.258h11.29V88.71H31.59l4.839 4.838h8.732v1.613c0 3.558 2.894 6.452 6.452 6.452s6.452-2.894 6.452-6.452v-1.613h11.291c2.668 0 4.84-2.17 4.84-4.838 0-1.244-.486-2.368-1.259-3.226.774-.858 1.258-1.982 1.258-3.226 0-1.243-.485-2.368-1.258-3.226.774-.858 1.258-1.982 1.258-3.226 0-1.243-.485-2.367-1.258-3.225.774-.858 1.258-1.983 1.258-3.226 0-2.516-1.937-4.565-4.393-4.794 6.842-5.484 10.843-13.713 10.843-22.626zM16.13 90.323H11.29V64.516h4.839v25.807zm21.636 0l-4.84-4.84h-13.57V67.743h16.797l6.451-6.452h20.3c.889 0 1.613.723 1.613 1.613s-.724 1.613-1.613 1.613H46.106l-6.924 6.924 2.28 2.281 3.7-3.698v20.3h-7.397zm24.47-32.258h-4.17v-7.397l6.451-6.452v-8.732c0-3.558-2.893-6.452-6.451-6.452h-3.226v9.01l-.668.668h-5.116l-.668-.668v-9.01h-3.226c-3.558 0-6.451 2.894-6.451 6.452v8.732l6.451 6.452v7.397h-3.893l-.102.101c-5.506-3.553-8.908-9.645-8.908-16.23 0-10.673 8.682-19.355 19.355-19.355 10.672 0 19.355 8.682 19.355 19.354 0 6.538-3.266 12.525-8.733 16.13zM47.72 41.935h7.787l2.559-2.558v-7.119c1.779 0 3.225 1.447 3.225 3.226v7.397l-5.506 5.506h-8.342l-5.507-5.506v-7.397c0-1.78 1.447-3.226 3.226-3.226v7.12l2.558 2.557zm.668 9.678h6.452v6.452h-6.452v-6.452zM70.97 75.806c0 .89-.724 1.613-1.613 1.613H56.452c-.89 0-1.613-.722-1.613-1.613 0-.89.724-1.612 1.613-1.612h12.904c.89 0 1.613.722 1.613 1.612zm0 6.452c0 .89-.724 1.613-1.613 1.613H56.452c-.89 0-1.613-.723-1.613-1.613s.724-1.613 1.613-1.613h12.904c.89 0 1.613.723 1.613 1.613zm-19.356 16.13c-1.78 0-3.226-1.448-3.226-3.227v-27.42h3.523c-.181.507-.297 1.046-.297 1.614 0 1.243.485 2.368 1.258 3.226-.774.858-1.258 1.982-1.258 3.225 0 1.244.485 2.368 1.258 3.226-.774.858-1.258 1.983-1.258 3.226 0 1.244.485 2.368 1.258 3.226-.774.858-1.258 1.982-1.258 3.226 0 2.1 1.353 3.874 3.226 4.542v1.91c0 1.778-1.447 3.225-3.226 3.225zm17.743-8.065H56.452c-.89 0-1.613-.723-1.613-1.613s.724-1.613 1.613-1.613h12.904c.89 0 1.613.722 1.613 1.613 0 .89-.724 1.613-1.613 1.613zm1.613-20.968c0 .89-.724 1.613-1.613 1.613H56.452c-.89 0-1.613-.723-1.613-1.613s.724-1.613 1.613-1.613h12.904c.89 0 1.613.723 1.613 1.613zm-3.304-7.218c-.184-1.143-.768-2.143-1.607-2.87 5.14-4.269 8.136-10.552 8.136-17.332 0-12.451-10.13-22.58-22.581-22.58-12.452 0-22.58 10.129-22.58 22.58 0 7.45 3.706 14.388 9.785 18.58l-2.323 2.322c-6.698-4.852-10.689-12.616-10.689-20.902 0-14.229 11.578-25.806 25.807-25.806s25.806 11.577 25.806 25.806c0 7.971-3.603 15.326-9.754 20.202z" transform="translate(30 29)"/>
                <path d="M3.226 14.516H6.452V17.742H3.226zM3.226 22.581H6.452V25.807H3.226zM3.226 30.645H6.452V33.871H3.226zM93.548 67.742H96.774V70.968H93.548zM93.548 75.806H96.774V79.032H93.548zM93.548 83.871H96.774V87.097H93.548z" transform="translate(30 29)"/>
            </g>
        </g>
        <path stroke="#FFF" stroke-opacity=".01" stroke-width=".1" d="M0.05 0.05H159.95000000000002V159.95000000000002H0.05z"/>
    </g>
</svg>
