<svg xmlns="http://www.w3.org/2000/svg" xmlns:xlink="http://www.w3.org/1999/xlink" width="56" height="56" viewBox="0 0 56 56">
    <defs>
        <path id="prefix__c" d="M17.606 0C7.898 0 0 7.875 0 17.554c0 3.069.908 6.621 2.7 10.559 1.416 3.113 3.387 6.48 5.858 10.008 4.195 5.989 8.452 10.445 8.495 10.489.297.31.809.31 1.106 0 .043-.044 4.3-4.5 8.495-10.49 2.47-3.527 4.442-6.894 5.858-10.007 1.791-3.938 2.7-7.49 2.7-10.56C35.212 7.876 27.314 0 17.606 0z"/>
        <path id="prefix__e" d="M10.104 0c-.308 0-.558.242-.558.541 0 3.282-2.75 5.951-6.129 5.951H0v1.082h3.417c3.994 0 7.244-3.155 7.244-7.033 0-.299-.25-.541-.557-.541z"/>
        <path id="prefix__g" d="M2.149 0v13.992l-1.782.59c-.281.093-.433.395-.34.675.094.28.399.431.68.338l2.149-.712c.22-.073.367-.277.367-.506V0H2.149z"/>
        <path id="prefix__i" d="M7.686 8.285H4.31C1.934 8.285 0 6.426 0 4.142S1.934 0 4.311 0h3.375v1.08H4.31c-1.757 0-3.186 1.374-3.186 3.062 0 1.689 1.43 3.062 3.186 3.062h3.375v1.08z"/>
        <path id="prefix__k" d="M1.074 0v13.992l1.782.59c.281.093.433.395.34.675-.094.28-.399.431-.68.338l-2.149-.712C.147 14.81 0 14.606 0 14.377V0h1.074z"/>
        <linearGradient id="prefix__d" x1="102.328%" x2="50%" y1="-105.243%" y2="100%">
            <stop offset="0%" stop-color="#D0242A"/>
            <stop offset="100%" stop-color="#DFD9D7"/>
        </linearGradient>
        <linearGradient id="prefix__m" x1="65.111%" x2="46.822%" y1="-103.11%" y2="141.762%">
            <stop offset="0%" stop-color="#AFACAB"/>
            <stop offset="100%" stop-color="#969290"/>
        </linearGradient>
        <linearGradient id="prefix__n" x1="44.277%" x2="50%" y1="-9.4%" y2="100%">
            <stop offset="0%" stop-color="#E9E3E2"/>
            <stop offset="100%" stop-color="#D9D3D1"/>
        </linearGradient>
        <filter id="prefix__a" width="227.1%" height="435.8%" x="-63.5%" y="-167.9%" filterUnits="objectBoundingBox">
            <feGaussianBlur in="SourceGraphic" stdDeviation="7"/>
        </filter>
        <filter id="prefix__b" width="354.2%" height="435.8%" x="-127.1%" y="-167.9%" filterUnits="objectBoundingBox">
            <feGaussianBlur in="SourceGraphic" stdDeviation="7"/>
        </filter>
    </defs>
    <g fill="none" fill-rule="evenodd" transform="translate(7)">
        <g fill="#BBBCBE">
            <path d="M16.524 12.506c-4.238 0-8.234-.543-11.252-1.528C1.774 9.835 0 8.245 0 6.253c0-1.992 1.774-3.582 5.272-4.725C8.29.543 12.286 0 16.524 0s8.234.543 11.252 1.528c3.498 1.143 5.272 2.733 5.272 4.725 0 1.992-1.774 3.582-5.272 4.725-3.018.985-7.014 1.528-11.252 1.528z" filter="url(#prefix__a)" transform="matrix(1 0 0 -1 1.018 57.912)"/>
            <path d="M27.776 1.528C24.758.543 20.762 0 16.524 0v12.506c4.238 0 8.234-.543 11.252-1.528 3.498-1.143 5.272-2.733 5.272-4.725 0-1.992-1.774-3.582-5.272-4.725z" filter="url(#prefix__b)" transform="matrix(1 0 0 -1 1.018 57.912)"/>
        </g>
        <use fill="url(#prefix__d)" fill-rule="nonzero" stroke="#D0242A" stroke-width=".2" xlink:href="#prefix__c"/>
        <path fill="#F75157" fill-rule="nonzero" d="M17.606 4.543c-7.203 0-13.063 5.86-13.063 13.063s5.86 13.062 13.063 13.062 13.062-5.86 13.062-13.062c0-7.203-5.86-13.063-13.062-13.063z"/>
        <g fill="#FFF" fill-rule="nonzero">
            <path fill-opacity="0" d="M0 0L15.902 0 15.902 15.902 0 15.902z" transform="translate(10.223 7.951)"/>
            <path d="M7.389 11.324l-4.003.425.79.762h5.667l-2.1-1.226-.354.039zm0-3.158l5.513-1.454s.803-.057 1.6-1.842L7.388 7.176 1.857 8.96s-.476.153-.662.28c0 0-.129.076-.129.254 0 0 .013.133.11.229l.237.235 3.02-.775s-.186-.242.186-.292l2.77-.725zm0 2.846c.006.064.058.121.058.121l-.058.006-4.196.47-.797-.736 4.993-.884 4.266-.75c-.7 1.36-2.114 1.36-2.114 1.36l-1.76.223c-.296.006-.38.082-.392.159v.031zm0-2.35l5.815-1.455c-.688 1.538-2.07 1.588-2.07 1.588l-3.745.75-1.227.248c-.592.012-.335.31-.335.31l-3.578.604-.668-.584 5.808-1.461zm0-3.106l8.128-3.284s-.277.807-.45 1.22c0 0-.212.654-1.06.914L7.389 6.718 1.65 8.713s-.739.26-.86.565c0 0-.174.35.295.743l2.769 2.49H2.769l-2.23-2.16S.04 9.946 0 9.368v-.12c.006-.039.006-.077.02-.121 0 0 .096-.636 1.06-1.023l6.309-2.547zm-5.911 7.362H.038v.35h.328v1.06H.04v.362h1.439v-.362h-.354v-.337h1.06v.337h-.346v.362h1.42v-.362h-.34v-1.06h.34v-.35H1.83v.35h.354v.348h-1.06v-.349h.353v-.35zm12.638.82h.276l-.276-.414-.032-.038-.25.451h.282zm0-.82h.572l.86 1.41h.354v.362h-1.549v-.362h.347l-.147-.21h-.938l-.116.21h.34v.362h-1.194v-.362h.366l.59-1.06h-.397v-.35h.912zm-2.756 1.39c.34-.037.54-.164.54-.495 0-.38-.226-.501-.54-.533-.058-.007-.116-.007-.18-.007h-.36v1.049h.289c.09 0 .173-.007.25-.013zm0-1.39h.23c.592 0 1.035.273 1.035.895 0 .718-.417.864-1.265.877H9.747v-.362h.347v-1.06h-.347v-.35h1.613zm-6.593 1.474c.335-.007.598-.267.598-.585 0-.337-.27-.59-.598-.59h-.006c-.328 0-.591.253-.591.584 0 .311.25.59.585.59h.012zm0-1.563h.02c.841 0 1.394.311 1.394.953 0 .59-.508.984-1.414.984h-.025c-.88 0-1.407-.336-1.407-.972 0-.61.52-.965 1.432-.965zm2.95.089h-1.42v.35h.34v1.06h-.34v.362h1.13v-.362h-.353v-.908l.996 1.27h1.099v-1.423h.36v-.35h-1.17v.35h.366v.934l-1.009-1.283z" transform="translate(10.223 7.951)"/>
        </g>
        <g>
            <g transform="translate(22.566 17.298) translate(7.686 3.077)">
                <mask id="prefix__f" fill="#fff">
                    <use xlink:href="#prefix__e"/>
                </mask>
                <use fill="#D2282D" fill-rule="nonzero" xlink:href="#prefix__e"/>
                <path fill="#FFE2A8" d="M8.691 -0.938L11.414 -0.959 11.391 1.885 8.668 1.906z" mask="url(#prefix__f)" transform="rotate(10 10.04 .473)"/>
            </g>
            <g transform="translate(22.566 17.298) translate(2.727 17.28)">
                <mask id="prefix__h" fill="#fff">
                    <use xlink:href="#prefix__g"/>
                </mask>
                <use fill="#D1262C" fill-rule="nonzero" xlink:href="#prefix__g"/>
                <path fill="#161718" d="M0 13.255H3.471V15.622H0z" mask="url(#prefix__h)"/>
            </g>
            <g transform="translate(22.566 17.298) translate(0 9.468)">
                <mask id="prefix__j" fill="#fff">
                    <use xlink:href="#prefix__i"/>
                </mask>
                <use fill="#D2272C" fill-rule="nonzero" xlink:href="#prefix__i"/>
                <path fill="#FFE2A8" d="M3.495 5.929L6.461 5.895 6.422 9.22 3.456 9.253z" mask="url(#prefix__j)" transform="rotate(15 4.958 7.574)"/>
            </g>
            <g transform="translate(22.566 17.298) translate(9.173 17.28)">
                <mask id="prefix__l" fill="#fff">
                    <use xlink:href="#prefix__k"/>
                </mask>
                <use fill="#971F20" fill-rule="nonzero" xlink:href="#prefix__k"/>
                <path fill="#161718" d="M-0.248 13.255H3.223V15.622H-0.248z" mask="url(#prefix__l)"/>
            </g>
            <path fill="#D3292F" fill-rule="nonzero" d="M9.421 8.521h-.744L7.19 16.096l3.719-2.164V9.964c0-.797-.666-1.443-1.488-1.443z" transform="translate(22.566 17.298)"/>
            <path fill="#D3292F" fill-rule="nonzero" d="M5.95 8.521c-.821 0-1.487.646-1.487 1.443v3.968l4.462 2.164V8.52H5.95z" transform="translate(22.566 17.298)"/>
            <path fill="url(#prefix__m)" fill-rule="nonzero" d="M8.925 11.835c0 1.2 1 2.171 2.232 2.171v9.19H8.925l-2.231-5.68 2.231-5.68z" transform="translate(22.566 17.298)"/>
            <path fill="url(#prefix__n)" fill-rule="nonzero" d="M9.917 11.835v11.362H4.463v-2.171l1.363-1.556-1.363-1.556v-3.908c1.506 0 2.727-.972 2.727-2.17h1.997c.162 0 .406.593.73 1.781v-1.782z" transform="translate(22.566 17.298)"/>
            <path fill="#9B9795" fill-rule="nonzero" d="M4.463 17.812L6.198 17.812 6.198 21.051 4.463 21.051z" transform="translate(22.566 17.298)"/>
            <path fill="#971F20" fill-rule="nonzero" d="M7.686 0v7.101l3.223-3.234v-.703C10.909 1.416 9.466 0 7.686 0z" transform="translate(22.566 17.298)"/>
            <path fill="#FFE2A8" fill-rule="nonzero" d="M9.026 3.856c-.076-.113-.165-.215-.266-.305L7.686 8.52c1.78 0 3.223-1.446 3.223-3.23V3.857H9.026z" transform="translate(22.566 17.298)"/>
            <g fill-rule="nonzero">
                <path fill="#FFF0D3" d="M4.614 5.265V3.531c-.304-.255-.707-.41-1.148-.41-.598 0-1.124.284-1.433.715H.02v1.43c0 1.776 1.543 3.217 3.446 3.217.634 0 1.148-1.44 1.148-3.218z" transform="translate(22.566 17.298) translate(4.463)"/>
                <path fill="#D2282E" d="M3.347 0C1.499 0 0 1.417 0 3.164v.703h4.637v-.703C4.637 1.416 3.963 0 3.347 0z" transform="translate(22.566 17.298) translate(4.463)"/>
            </g>
            <g fill-rule="nonzero">
                <path fill="#9B9796" d="M.24 6.1V5.047c.95 0 1.75-.722 1.75-1.598V.238h1.15v3.21C3.14 4.908 1.823 6.1.24 6.1z" transform="translate(22.566 17.298) translate(4.215 8.285)"/>
                <path fill="#9B9795" d="M4.288 3.448V.233h1.149v3.215c0 .876.57 1.606 1.52 1.606V6.08c-1.583 0-2.669-1.171-2.669-2.632z" transform="translate(22.566 17.298) translate(4.215 8.285)"/>
            </g>
            <path fill="#971F20" d="M3.996 3.202h3.537c.153 0 .277.124.277.277 0 .153-.124.276-.277.276H3.996c-.153 0-.277-.123-.277-.276 0-.153.124-.277.277-.277z" transform="translate(22.566 17.298)"/>
            <g fill-rule="nonzero">
                <path fill="#FFF" fill-opacity="0" d="M0 1.594L2.087 1.594 2.087 3.719 0 3.719z" transform="translate(22.566 17.298) translate(6.262 14.346)"/>
                <path fill="#D2282E" d="M.444 2.143l.104.13h.744l-.276-.208-.046.006-.526.072zm.526-.609l.724-.247s.105-.01.21-.314l-.934.393-.726.303s-.063.026-.087.048c0 0-.017.013-.017.043 0 0 .002.023.014.039l.032.04.396-.132s-.025-.041.024-.05l.364-.123zm.007.505H.97l-.55.08-.105-.125.655-.15.56-.127c-.092.23-.278.23-.278.23l-.23.039c-.04 0-.05.014-.052.027 0 .016.007.026.007.026zm-.007-.42l.763-.248c-.09.261-.271.27-.271.27l-.492.128-.161.042c-.078.002-.044.053-.044.053l-.47.102-.088-.1.763-.248zm0-.529L2.037.531S2 .67 1.977.74c0 0-.027.111-.138.155l-.87.394-.752.339s-.097.044-.113.096c0 0-.023.06.039.127l.363.423H.364L.07 1.906S.005 1.836 0 1.738v-.02c0-.007 0-.013.003-.02 0 0 .012-.109.139-.175L.97 1.09zM.005 2.342v.06h.043v.18H.005v.062h.189v-.062H.148v-.057h.139v.057H.24v.062h.187v-.062H.383v-.18h.045v-.06H.24v.06h.047v.06h-.14v-.06h.047v-.06H.005zm1.916.245h.104L1.92 2.42l-.012-.015-.093.182h.105zm.007-.245l.113.24h.046v.062h-.203v-.062h.046l-.02-.036h-.123l-.015.036h.045v.062H1.66v-.062h.048l.077-.18h-.052v-.06h.195zm-.299.155c0-.067-.043-.088-.104-.093l-.035-.001h-.07v.182h.056l.049-.002c.065-.007.104-.029.104-.086zm-.138-.155h.03c.078 0 .136.047.136.153 0 .122-.055.147-.166.149H1.28v-.062h.046v-.18h-.046v-.06h.212zm-.735.152c0-.058-.047-.1-.104-.1-.059 0-.105.042-.105.098 0 .053.044.101.102.101.061-.001.107-.045.107-.1zm-.13-.167c.113 0 .185.053.185.162 0 .1-.066.168-.185.168-.12 0-.188-.058-.188-.166 0-.103.068-.164.188-.164zm.2.015v.06h.045v.18H.827v.062h.148v-.062H.929v-.154l.13.216h.145v-.242h.047v-.06h-.154v.06h.048v.159l-.132-.219H.827z" transform="translate(22.566 17.298) translate(6.262 14.346)"/>
            </g>
            <g fill-rule="nonzero">
                <path fill="#FFF" fill-opacity="0" d="M0 0L2.087 0 2.087 1.594 0 1.594z" transform="translate(22.566 17.298) translate(5.219 1.063)"/>
                <path fill="#D9D3D1" d="M.97 1.332l-.526.055.104.1h.744l-.276-.16-.046.005zm0-.403l.724-.185s.105-.008.21-.235L.97.803l-.726.227s-.063.02-.087.036c0 0-.017.01-.017.033 0 0 .002.017.014.029l.032.03.396-.1s-.025-.03.024-.036L.97.929zm0 .363c0 .008.007.016.007.016H.97l-.55.06-.105-.094.655-.112.56-.096c-.092.174-.278.174-.278.174l-.23.028c-.04 0-.05.01-.052.02v.004zm0-.3l.763-.185c-.09.196-.271.202-.271.202l-.492.096-.161.032c-.078.001-.044.04-.044.04l-.47.076-.088-.074L.97.992zm0-.396L2.037.177S2 .28 1.977.333c0 0-.027.083-.138.116l-.87.295L.218 1s-.097.033-.113.072c0 0-.023.045.039.095l.363.317H.364L.07 1.208S.005 1.156 0 1.082v-.015c0-.005 0-.01.003-.015 0 0 .012-.082.139-.13L.97.595zm-.776.94H.005v.044h.043v.135H.005v.046h.189v-.046H.148v-.043h.139v.043H.24v.046h.187v-.046H.383V1.58h.045v-.045H.24v.045h.047v.044h-.14V1.58h.047v-.045zm1.727.206h.104l-.104-.146-.012-.014-.093.16h.105zm-.068-.207h.075l.113.18h.046v.046h-.203v-.046h.046l-.02-.027h-.123l-.015.027h.045v.046H1.66v-.046h.048l.077-.135h-.052v-.045h.12zm-.328.203c.065-.006.104-.025.104-.075 0-.058-.043-.076-.104-.081L1.49 1.58h-.07v.16h.056c.018 0 .034-.002.049-.003zm-.034-.203h.03c.078 0 .136.035.136.115 0 .091-.055.11-.166.111H1.28v-.046h.046V1.58h-.046v-.045h.212zm-.84.198c.06-.001.105-.036.105-.08 0-.045-.047-.08-.104-.08H.65c-.058 0-.104.035-.104.08 0 .042.044.08.102.08h.003zm-.025-.209h.002c.11 0 .183.04.183.122 0 .075-.066.125-.185.125H.622c-.115 0-.184-.043-.184-.124 0-.078.068-.123.188-.123zm.387.011H.827v.045H.87v.135H.827v.046h.148v-.046H.929V1.6l.13.162h.145V1.58h.047v-.045h-.154v.045h.048v.119l-.132-.164z" transform="translate(22.566 17.298) translate(5.219 1.063)"/>
            </g>
        </g>
    </g>
</svg>
